<?xml version="1.0" encoding="UTF-8"?>
<svg xmlns="http://www.w3.org/2000/svg" xmlns:xlink="http://www.w3.org/1999/xlink" viewBox="0 0 24 24" width="24px" height="24px">
<g id="surface186970173">
<path style=" stroke:none;fill-rule:nonzero;fill:rgb(0%,0%,0%);fill-opacity:1;" d="M 12 0.960938 C 18.097656 0.960938 23.039062 5.902344 23.039062 12 C 23.039062 18.097656 18.097656 23.039062 12 23.039062 C 5.902344 23.039062 0.960938 18.097656 0.960938 12 C 0.960938 5.902344 5.902344 0.960938 12 0.960938 Z M 15.808594 16.5 C 16.011719 15.878906 16.960938 9.667969 17.082031 8.445312 C 17.117188 8.074219 17 7.828125 16.769531 7.71875 C 16.492188 7.585938 16.082031 7.652344 15.605469 7.824219 C 14.949219 8.058594 6.59375 11.605469 6.109375 11.8125 C 5.652344 12.007812 5.21875 12.21875 5.21875 12.527344 C 5.21875 12.742188 5.347656 12.863281 5.699219 12.988281 C 6.066406 13.121094 6.992188 13.402344 7.539062 13.550781 C 8.066406 13.699219 8.667969 13.570312 9.003906 13.363281 C 9.359375 13.140625 13.46875 10.390625 13.765625 10.148438 C 14.058594 9.910156 14.292969 10.21875 14.054688 10.460938 C 13.8125 10.699219 10.992188 13.4375 10.617188 13.816406 C 10.167969 14.277344 10.488281 14.753906 10.789062 14.945312 C 11.136719 15.164062 13.625 16.832031 14 17.101562 C 14.375 17.371094 14.753906 17.492188 15.105469 17.492188 C 15.453125 17.492188 15.636719 17.03125 15.808594 16.5 Z M 15.808594 16.5 "/>
</g>
</svg>
