<?xml version="1.0" encoding="UTF-8"?>
<svg xmlns="http://www.w3.org/2000/svg" xmlns:xlink="http://www.w3.org/1999/xlink" viewBox="0 0 24 24" width="24px" height="24px">
<g id="surface187297462">
<path style=" stroke:none;fill-rule:nonzero;fill:rgb(0%,0%,0%);fill-opacity:1;" d="M 0.960938 12 C 0.960938 5.902344 5.902344 0.960938 12 0.960938 C 18.097656 0.960938 23.039062 5.902344 23.039062 12 C 23.039062 18.097656 18.097656 23.039062 12 23.039062 C 5.902344 23.039062 0.960938 18.097656 0.960938 12 Z M 16.5 8.191406 C 15.878906 7.988281 9.667969 7.039062 8.445312 6.917969 C 8.074219 6.882812 7.828125 7 7.71875 7.230469 C 7.585938 7.507812 7.652344 7.917969 7.824219 8.394531 C 8.058594 9.050781 11.605469 17.40625 11.8125 17.890625 C 12.007812 18.347656 12.21875 18.78125 12.527344 18.78125 C 12.742188 18.78125 12.863281 18.652344 12.988281 18.300781 C 13.121094 17.933594 13.402344 17.007812 13.550781 16.460938 C 13.699219 15.933594 13.570312 15.332031 13.363281 14.996094 C 13.140625 14.640625 10.390625 10.53125 10.148438 10.234375 C 9.910156 9.941406 10.21875 9.707031 10.460938 9.945312 C 10.699219 10.1875 13.4375 13.007812 13.816406 13.382812 C 14.277344 13.832031 14.753906 13.511719 14.945312 13.210938 C 15.164062 12.863281 16.832031 10.375 17.101562 10 C 17.371094 9.625 17.492188 9.246094 17.492188 8.894531 C 17.492188 8.546875 17.03125 8.363281 16.5 8.191406 Z M 16.5 8.191406 "/>
</g>
</svg>
