<?xml version="1.0" encoding="UTF-8"?>
<svg xmlns="http://www.w3.org/2000/svg" xmlns:xlink="http://www.w3.org/1999/xlink" viewBox="0 0 24 24" width="24px" height="24px">
<g id="surface187006910">
<path style=" stroke:none;fill-rule:nonzero;fill:rgb(0%,0%,0%);fill-opacity:1;" d="M 2 11.988281 C 2 17.492188 6.476562 21.976562 11.984375 21.976562 C 13.742188 21.980469 15.460938 21.515625 16.976562 20.644531 L 22 22 L 20.761719 16.765625 C 21.558594 15.308594 21.976562 13.664062 21.976562 11.992188 L 21.976562 11.988281 C 21.976562 6.484375 17.5 2.003906 11.992188 2 C 9.324219 2 6.816406 3.035156 4.925781 4.921875 C 3.039062 6.808594 2 9.316406 2 11.988281 Z M 4 11.988281 C 4 9.851562 4.832031 7.847656 6.339844 6.335938 C 7.851562 4.828125 9.855469 4 11.992188 4 C 16.394531 4.003906 19.976562 7.585938 19.976562 11.992188 C 19.976562 13.324219 19.640625 14.644531 19.007812 15.808594 L 18.640625 16.480469 L 18.816406 17.226562 L 19.28125 19.195312 L 17.496094 18.714844 L 16.695312 18.496094 L 15.976562 18.910156 C 14.769531 19.609375 13.386719 19.980469 11.984375 19.976562 C 7.582031 19.976562 4 16.390625 4 11.988281 Z M 7.375 15.523438 C 7.375 15.691406 7.4375 15.960938 7.6875 16.1875 C 7.933594 16.417969 8.539062 17.0625 9.765625 17.0625 C 10.996094 17.0625 12.179688 16.167969 12.347656 16.042969 C 12.515625 15.921875 15.113281 14.316406 16.113281 11.78125 C 16.945312 9.671875 16.78125 9.242188 16.738281 8.785156 C 16.699219 8.328125 16.136719 7.308594 15.554688 7.101562 C 14.972656 6.894531 14.46875 6.890625 14.367188 6.953125 C 14.261719 7.015625 14.199219 7.183594 14.074219 7.433594 C 13.949219 7.679688 13.347656 8.910156 13.265625 9.136719 C 13.183594 9.367188 13.140625 9.535156 13.390625 9.699219 C 13.640625 9.867188 14.199219 10.34375 14.367188 10.488281 C 14.535156 10.636719 14.554688 10.78125 14.429688 11.03125 C 14.304688 11.28125 14.039062 12.085938 13.191406 13.039062 C 12.53125 13.78125 11.714844 14.28125 11.464844 14.425781 C 11.214844 14.570312 11.078125 14.441406 10.953125 14.316406 C 10.84375 14.203125 10.664062 14.066406 10.515625 13.941406 C 10.371094 13.820312 10.265625 13.777344 10.101562 13.691406 C 9.933594 13.609375 9.789062 13.652344 9.664062 13.714844 C 9.539062 13.777344 8.304688 14.261719 7.8125 14.484375 C 7.398438 14.671875 7.386719 14.867188 7.378906 15.046875 C 7.375 15.191406 7.375 15.355469 7.375 15.523438 Z M 7.375 15.523438 "/>
</g>
</svg>
